<svg width="29" height="42" viewBox="0 0 29 42" fill="none" xmlns="http://www.w3.org/2000/svg">
<g clip-path="url(#clip0_70_639)">
<mask id="mask0_70_639" style="mask-type:luminance" maskUnits="userSpaceOnUse" x="0" y="0" width="29" height="42">
<path d="M29 0.5H0V41.5H29V0.5Z" fill="white"/>
</mask>
<g mask="url(#mask0_70_639)">
<mask id="mask1_70_639" style="mask-type:luminance" maskUnits="userSpaceOnUse" x="0" y="0" width="29" height="42">
<path d="M29 0.5H0V41.5H29V0.5Z" fill="white"/>
</mask>
<g mask="url(#mask1_70_639)">
<path d="M8.55911 21.459C8.55083 21.4876 8.53937 21.5109 8.5256 21.5291L8.55911 21.459C8.65471 21.1315 8.34172 20.102 6.3983 18.0156C3.75706 15.1801 4.39722 11.5188 7.89965 8.87915C7.34354 9.68873 6.7162 12.0006 8.65582 14.7719C10.2004 16.9788 10.4046 17.579 10.3124 17.8022L8.55911 21.459Z" fill="url(#paint0_linear_70_639)"/>
<path d="M12.4919 14.9582C12.4765 14.9883 12.4588 15.0119 12.4396 15.0294L12.4919 14.9582C12.669 14.6131 12.5483 13.4163 10.8578 10.7499C8.56042 7.12619 10.0669 3.19184 14.5111 0.914062C13.7202 1.70783 12.5225 4.15127 14.0591 7.57483C15.2829 10.3013 15.3773 11.003 15.2266 11.2331L12.4919 14.9582Z" fill="white"/>
<path d="M6.13967 26.1887C6.13828 26.209 6.134 26.226 6.12745 26.2399L6.13967 26.1887C6.15565 25.9563 5.79406 25.3012 4.18232 24.1334C1.99187 22.5462 1.88299 20.0017 3.84605 17.7954C3.59179 18.4086 3.51078 20.0427 5.22069 21.6723C6.5824 22.9701 6.80782 23.3494 6.7787 23.5111L6.13967 26.1887Z" fill="white"/>
<path d="M6.65302 32.1258C6.65363 32.131 6.65362 32.1353 6.65302 32.139V32.1258C6.62982 31.9307 5.71278 30.7718 3.81395 30.0414C1.39349 29.1103 1.19716 26.961 2.07135 24.7617C2.0135 25.2779 2.3836 27.1805 4.13634 27.9664C5.68699 28.6616 6.64055 29.7627 6.65425 29.8917L6.65302 32.1258Z" fill="url(#paint1_linear_70_639)"/>
<path d="M10.6207 17.0656C2.41034 26.3148 7.00511 32.8375 10.2065 41.4654C8.17275 28.5924 9.14053 25.8767 17.1364 19.1708C23.8026 13.5799 18.2537 3.49093 14.726 0.534424C16.5087 2.32904 18.2134 8.51231 10.6207 17.0656Z" fill="url(#paint2_linear_70_639)"/>
<path d="M16.6842 21.8282C9.21529 27.4243 11.3637 37.1313 12.5788 41.3914C12.7345 31.2428 16.0288 29.8353 21.9192 24.6238C27.3802 19.792 24.2904 11.7985 21.1284 9.61108C22.2134 11.1809 23.501 16.7208 16.6842 21.8282Z" fill="white"/>
<path d="M21.5048 27.6606C16.1568 31.3879 15.4035 33.9072 15.1196 41.6047C16.5998 34.4921 18.0607 34.3357 23.3739 31.1305C28.6871 27.9253 27.4554 22.5943 26.2504 20.4822C26.8007 21.7082 27.2599 23.6498 21.5048 27.6606Z" fill="url(#paint3_linear_70_639)"/>
</g>
</g>
</g>
<defs>
<linearGradient id="paint0_linear_70_639" x1="7.55322" y1="8.87915" x2="7.55322" y2="21.5291" gradientUnits="userSpaceOnUse">
<stop stop-color="#E30DCE"/>
<stop offset="1" stop-color="#20D3FC"/>
</linearGradient>
<linearGradient id="paint1_linear_70_639" x1="4.12522" y1="24.7617" x2="4.12522" y2="32.139" gradientUnits="userSpaceOnUse">
<stop stop-color="#E30DCE"/>
<stop offset="1" stop-color="#20D3FC"/>
</linearGradient>
<linearGradient id="paint2_linear_70_639" x1="13.1296" y1="0.534424" x2="13.1296" y2="41.4654" gradientUnits="userSpaceOnUse">
<stop stop-color="#E30DCE"/>
<stop offset="1" stop-color="#20D3FC"/>
</linearGradient>
<linearGradient id="paint3_linear_70_639" x1="21.2084" y1="20.4822" x2="21.2084" y2="41.6047" gradientUnits="userSpaceOnUse">
<stop stop-color="#E30DCE"/>
<stop offset="1" stop-color="#20D3FC"/>
</linearGradient>
<clipPath id="clip0_70_639">
<rect width="29" height="41" fill="white" transform="translate(0 0.5)"/>
</clipPath>
</defs>
</svg>
